# xmcd
#
# Track frame offsets: 
#        150
#        11267
#        22155
#        32898
#        46320
#        58501
#        71273
#        82404
#        99533
#        111678
#        124146
#        141385
#
# Disc length: 2071 seconds
#
# Revision: 0
# Processed by: cddbd v1.5.2PL0 Copyright (c) Steve Scherf et al.
# Submitted via: ExactAudioCopy v1.0b1
#
DISCID=ae08150c
DTITLE=Bobby Flores - Fast Company
DYEAR=2011
DGENRE=Country
TTITLE0=Fast Company
TTITLE1=Glad To Let Her Go
TTITLE2=Make Room For The Blues
TTITLE3=Look What Thoughts Will Do
TTITLE4=A Little Unfair
TTITLE5=Your Old Used To Be
TTITLE6=I Guess I Had It Coming
TTITLE7=Lonely Street
TTITLE8=In The Corner Of My Mind
TTITLE9=Talk To Me Oh Lonesome Heart
TTITLE10=Born To Lose
TTITLE11=The One you Hang Around With
EXTD=
EXTT0=
EXTT1=
EXTT2=
EXTT3=
EXTT4=
EXTT5=
EXTT6=
EXTT7=
EXTT8=
EXTT9=
EXTT10=
EXTT11=
PLAYORDER=
